<svg aria-hidden="true" style="position: absolute; width: 0; height: 0; overflow: hidden;" version="1.1" xmlns="http://www.w3.org/2000/svg" xmlns:xlink="http://www.w3.org/1999/xlink">
<defs>
<symbol id="arrow-left" viewBox="0 0 32 32">
<path fill="none" stroke="#fff" style="stroke: var(--color1, #fff)" stroke-linejoin="round" stroke-linecap="round" stroke-miterlimit="4" stroke-width="2" d="M30.667 16h-24M16 25.333l-9.333-9.333 9.333-9.333"></path>
</symbol>
<symbol id="arrow-right" viewBox="0 0 32 32">
<path stroke-linejoin="round" stroke-linecap="round" stroke-miterlimit="4" stroke-width="2" d="M1.333 16h24M16 6.667l9.333 9.333-9.333 9.333"></path>
</symbol>
<symbol id="Logo" viewBox="0 0 38 32">
<path fill="#c99e71" style="fill: var(--color2, #c99e71)" d="M19.833 11.421c-1.124-0.983-1.195-1.894-0.284-3.022 0.128-0.159 0.27-0.318 0.384-0.492 0.839-1.214 0.555-2.429-0.725-3.094-0.091-0.054-0.203-0.112-0.318-0.164l-0.024-0.010c0.014 0.073 0.014 0.116 0.028 0.145 0.427 0.839 0.341 1.605-0.256 2.314-0.094 0.11-0.178 0.233-0.25 0.365l-0.006 0.011c-1.081 1.749-0.014 3.63 1.451 3.948z"></path>
<path fill="#c99e71" style="fill: var(--color2, #c99e71)" d="M17.614 9.932c-0.655-0.709-0.669-1.331-0.085-2.083 0.085-0.101 0.171-0.217 0.242-0.333 0.541-0.81 0.398-1.663-0.356-2.155-0.057-0.043-0.128-0.087-0.199-0.13 0 0.043 0 0.073 0.014 0.101 0.242 0.579 0.157 1.114-0.213 1.591-0.057 0.072-0.114 0.159-0.171 0.245-0.683 1.186-0.1 2.517 0.768 2.763zM20.373 10.568c-0.185-0.318-0.27-0.651-0.085-0.998 0.085-0.159 0.199-0.304 0.299-0.434 0.228-0.304 0.271-0.622 0.129-0.94-0.228 0.318-0.441 0.622-0.669 0.94-0.427 0.579-0.341 1.056 0.327 1.432zM3.998 19.606v-0.766l-0.043-0.014c-0.284-0.116-0.555-0.188-0.825-0.188-0.398 0-0.725 0.145-0.953 0.434-0.242 0.289-0.356 0.679-0.37 1.171 0 0.492 0.114 0.897 0.341 1.172 0.228 0.289 0.555 0.434 0.953 0.448h0.014c0.303-0.002 0.587-0.082 0.834-0.222l-0.009 0.004 0.043-0.014v-0.462l-0.099 0.058c-0.27 0.145-0.526 0.203-0.754 0.203-0.27 0-0.469-0.101-0.612-0.29s-0.228-0.492-0.213-0.911c0-0.39 0.071-0.679 0.227-0.868 0.142-0.188 0.341-0.275 0.612-0.275 0.171 0 0.327 0.029 0.441 0.073v0.462l0.413-0.014zM6.303 21.891c0.37 0 0.669-0.145 0.882-0.434s0.327-0.694 0.327-1.201c0-0.477-0.1-0.868-0.299-1.142-0.199-0.29-0.484-0.434-0.853-0.434s-0.669 0.145-0.897 0.434c-0.213 0.289-0.327 0.679-0.327 1.171s0.1 0.897 0.313 1.186c0.213 0.26 0.498 0.405 0.853 0.419zM5.819 19.375c0.128-0.174 0.299-0.275 0.526-0.26 0.228 0 0.398 0.086 0.512 0.275 0.128 0.188 0.185 0.477 0.185 0.868 0 0.405-0.071 0.709-0.199 0.897s-0.299 0.289-0.512 0.289c-0.228 0-0.384-0.101-0.512-0.289-0.128-0.203-0.185-0.506-0.185-0.897-0.014-0.405 0.057-0.709 0.185-0.882zM8.651 21.428v0.42l1.166 0.014v-0.42h-0.37v-0.911h0.455v0.333h0.398l0.014-1.012h-0.412v0.275l-0.455-0.014 0.014-0.955h0.811v0.39h0.413l0.014-0.795-2.020-0.014v0.419h0.313l-0.014 2.27h-0.327zM11.624 21.458v0.419h1.152l0.014-0.419h-0.384l0.014-0.897h0.441v0.332h0.412v-1.027h-0.398v0.275h-0.455v-0.955h0.825l-0.014 0.391h0.427l0.014-0.796-2.035-0.029v0.42h0.327l-0.014 2.285h-0.327zM14.597 21.472l-0.014 0.419 2.077 0.014 0.014-0.796h-0.427v0.376h-0.868v-0.955h0.398v0.333h0.413v-1.027h-0.398v0.275h-0.398v-0.911l0.811 0.014v0.376l0.427 0.014v-0.81l-2.020-0.014v0.419h0.327l-0.028 2.285-0.313-0.014zM17.727 21.501l-0.014 0.419 2.077 0.014 0.014-0.795-0.427-0.015v0.39l-0.868-0.014v-0.955h0.398v0.333h0.413v-1.012h-0.398v0.275l-0.413-0.014 0.014-0.897h0.811v0.39h0.427v-0.795l-2.020-0.015v0.405l0.327 0.014-0.028 2.27h-0.313zM26.022 19.722v-0.723l-0.043-0.014c-0.21-0.109-0.459-0.173-0.723-0.173-0.006 0-0.011 0-0.017 0h0.001c-0.313 0-0.555 0.072-0.74 0.231-0.174 0.144-0.285 0.36-0.285 0.603 0 0.007 0 0.014 0 0.020l-0-0.001c0 0.145 0.028 0.275 0.071 0.376 0.057 0.101 0.114 0.188 0.199 0.26s0.171 0.13 0.27 0.174c0.1 0.043 0.199 0.086 0.285 0.116 0.1 0.043 0.185 0.086 0.27 0.116 0.071 0.043 0.128 0.072 0.185 0.116 0.043 0.043 0.085 0.086 0.1 0.144 0.028 0.044 0.043 0.116 0.043 0.188 0 0.145-0.043 0.246-0.142 0.333s-0.242 0.116-0.412 0.116-0.313-0.014-0.427-0.058v-0.434h-0.427v0.738l0.043 0.014c0.242 0.101 0.498 0.159 0.782 0.159h0.014c0.313 0 0.569-0.087 0.754-0.245 0.199-0.16 0.299-0.391 0.299-0.666 0-0.159-0.028-0.289-0.071-0.39-0.047-0.104-0.115-0.191-0.198-0.259l-0.001-0.001c-0.076-0.072-0.166-0.131-0.265-0.172l-0.006-0.002-0.299-0.13c-0.1-0.043-0.185-0.072-0.27-0.116-0.071-0.031-0.131-0.064-0.188-0.104l0.004 0.002c-0.041-0.039-0.079-0.081-0.112-0.127l-0.002-0.003c-0.027-0.045-0.043-0.1-0.043-0.158 0-0.006 0-0.011 0-0.016l-0 0.001c0-0.116 0.043-0.203 0.128-0.289s0.228-0.13 0.398-0.116c0.142 0 0.27 0.029 0.37 0.058v0.42l0.455 0.014zM27.174 21.573v0.419l1.11 0.014v-0.419h-0.327l0.014-0.969 1.309 0.014v0.955h-0.327v0.419h1.095l0.014-0.405h-0.327l0.014-2.284h0.327v-0.42h-1.109v0.405l0.327 0.014-0.014 0.896-1.309-0.014v-0.897h0.327v-0.42h-1.095l-0.014 0.42h0.327l-0.014 2.27h-0.327zM32.368 22.094c0.014 0 0.014 0 0 0 0.37 0 0.668-0.145 0.882-0.434s0.327-0.694 0.327-1.2c0-0.477-0.1-0.868-0.299-1.142-0.199-0.29-0.484-0.434-0.854-0.434s-0.669 0.145-0.896 0.434c-0.213 0.289-0.327 0.679-0.327 1.171s0.099 0.897 0.313 1.186c0.213 0.26 0.498 0.405 0.853 0.419zM31.884 19.578c0.128-0.174 0.299-0.26 0.526-0.26s0.398 0.086 0.512 0.275c0.128 0.188 0.185 0.477 0.185 0.868 0 0.405-0.071 0.708-0.199 0.897s-0.299 0.289-0.512 0.289c-0.228 0-0.384-0.101-0.512-0.289-0.128-0.203-0.186-0.507-0.186-0.897 0-0.405 0.057-0.709 0.185-0.882zM34.73 21.631v0.419l1.166 0.015v-0.42h-0.37v-0.795h0.185c0.341 0 0.612-0.087 0.797-0.246 0.185-0.174 0.285-0.419 0.285-0.752 0-0.289-0.085-0.507-0.242-0.665-0.156-0.159-0.412-0.231-0.74-0.231l-1.038-0.014v0.419h0.327l-0.014 2.285-0.355-0.014zM35.725 20.431h-0.199l0.014-1.070h0.228c0.199 0 0.341 0.043 0.427 0.116s0.128 0.203 0.128 0.405c0 0.202-0.057 0.332-0.142 0.419-0.128 0.087-0.27 0.13-0.455 0.13z"></path>
<path fill="#c99e71" style="fill: var(--color2, #c99e71)" d="M33.762 16.974c0.071-0.058 0.128-0.116 0.199-0.174 0.768-0.694 0.754-1.027-0.071-1.692-1.651-1.316-1.651-1.316-0.469-3.081 0.54-0.824 0.412-1.359-0.513-1.634-1.764-0.535-2.22-0.332-1.394-2.849 0.014-0.044 0.043-0.101 0.057-0.145 0.185-0.679-0.014-1.012-0.725-1.099-0.441-0.058-0.896-0.014-1.338-0.044-0.925-0.043-1.138-0.289-1.166-1.229v-0.636c0-1.417-0.213-1.59-1.565-1.273-1.85 0.434-1.85 0.434-2.532-1.388-0.441-1.171-0.654-1.244-1.679-0.564-1.665 1.084-1.665 1.084-2.931-0.477-0.74-0.926-1.067-0.926-1.793 0.029-1.294 1.692-1.223 1.634-2.888 0.477-1.053-0.738-1.338-0.593-1.75 0.651-0.469 1.432-0.64 2.083-2.291 1.316-0.114-0.058-0.256-0.044-0.384-0.073-1.095-0.26-1.366-0.101-1.352 1.027 0.014 2.198-0.242 2.184-2.191 2.17-1.038 0-1.28 0.361-0.996 1.345 0.583 2.053 0.583 2.053-1.394 2.777-0.925 0.333-1.096 0.825-0.541 1.62 1.28 1.851 1.309 1.808-0.498 3.138-0.782 0.579-0.782 1.027-0.043 1.634 0.085 0.073 0.171 0.13 0.256 0.203h-3.77v0.593h38.343v-0.594h-4.581v-0.029zM6.274 15.948c0.014-6.956 5.62-12.611 12.463-12.625 6.872 0 12.506 5.727 12.463 12.726 0 0.304-0.014 0.622-0.043 0.926h-4.653c1.395-0.969 2.077-2.343 1.537-3.196-0.299-0.477-0.939-0.679-1.736-0.578 0.028-0.203 0.057-0.405 0.071-0.608 0.003-0.027 0.005-0.058 0.005-0.090 0-0.228-0.088-0.435-0.232-0.59l0 0.001c-0.165-0.184-0.403-0.301-0.668-0.303h-12.948c-0.256 0-0.498 0.116-0.669 0.304s-0.242 0.419-0.228 0.679c0.142 1.663 0.725 3.167 1.608 4.382h-6.929c-0.027-0.304-0.043-0.658-0.043-1.016 0-0.004 0-0.007 0-0.011v0.001zM24.841 16.859c0.549-0.787 0.987-1.702 1.265-2.683l0.016-0.064c0.541-0.13 0.981-0.058 1.138 0.188 0.128 0.203 0.071 0.535-0.142 0.896-0.242 0.405-0.654 0.811-1.166 1.143-0.37 0.245-0.74 0.419-1.109 0.521zM5.236 15.687c0.171-7.592 6.26-13.492 13.673-13.42s13.616 6.465 13.303 14.361c0 0.116-0.014 0.231-0.014 0.347h-0.569c0.028-0.318 0.043-0.651 0.043-0.983 0.014-7.202-5.79-13.117-12.862-13.131-7.156-0.015-12.975 5.856-12.989 13.102 0 0.347 0.014 0.679 0.043 1.012h-0.598c-0.029-0.42-0.029-0.853-0.029-1.287zM0 23.959h6.090c-0.427 1.677-0.299 1.692 1.678 1.749 1.11 0.029 1.338 0.261 1.395 1.36 0.099 2.198 0.099 2.198 2.163 1.59 0.939-0.275 1.28-0.116 1.636 0.796 0.142 0.347 0.213 0.708 0.341 1.056 0.27 0.737 0.655 0.896 1.338 0.506 0.413-0.231 0.768-0.549 1.167-0.795 0.498-0.318 0.967-0.376 1.365 0.203 0.285 0.405 0.598 0.81 0.925 1.186 0.441 0.521 0.853 0.521 1.309 0 0.299-0.333 0.541-0.709 0.825-1.056 0.541-0.665 0.91-0.723 1.608-0.245 0.37 0.245 0.725 0.506 1.109 0.737 0.583 0.376 0.982 0.188 1.21-0.462 0.142-0.405 0.327-0.796 0.441-1.2 0.185-0.724 0.626-0.955 1.294-0.796 0.413 0.101 0.797 0.275 1.195 0.39 0.825 0.245 1.266-0.058 1.309-0.94 0.014-0.419 0.014-0.853 0.014-1.287-0.014-0.651 0.327-0.983 0.939-1.041 0.256-0.029 0.527 0 0.968 0 1.309 0.101 1.693-0.318 1.109-1.764h6.972v-0.593h-38.4v0.607zM28.398 23.959c-2.305 2.878-5.819 4.715-9.703 4.656-3.87 0-7.341-1.822-9.618-4.656h19.321zM18.681 29.657c-4.539 0-8.494-2.27-10.926-5.712h0.74c2.362 3.124 6.075 5.134 10.258 5.134 4.14 0.043 7.868-1.996 10.229-5.134h0.683c-2.49 3.485-6.544 5.785-10.983 5.712z"></path>
</symbol>
<symbol id="Play" viewBox="0 0 27 32">
<path fill="none" stroke="#fff" style="stroke: var(--color1, #fff)" stroke-linejoin="miter" stroke-linecap="butt" stroke-miterlimit="4" stroke-width="0.4404" d="M23.853 10.275c0 5.553-4.502 10.055-10.055 10.055s-10.055-4.502-10.055-10.055c0-5.553 4.502-10.055 10.055-10.055s10.055 4.502 10.055 10.055z"></path>
<path fill="#fff" style="fill: var(--color1, #fff)" d="M11.743 7.633l4.11 2.642-4.11 2.642v-5.284zM0.414 30.826h0.413v-1.248h0.747c0.796 0 1.154-0.484 1.154-1.087s-0.358-1.081-1.161-1.081h-1.154v3.416zM0.827 29.211v-1.434h0.727c0.556 0 0.767 0.304 0.767 0.714s-0.212 0.721-0.76 0.721h-0.734zM3.395 30.826h2.002v-0.367h-1.588v-3.049h-0.414v3.416zM6.393 30.826l0.343-0.967h1.381l0.344 0.967h0.434l-1.254-3.416h-0.427l-1.254 3.416h0.434zM6.867 29.491l0.547-1.541h0.027l0.547 1.541h-1.121zM8.785 27.41l1.234 2.008v1.408h0.414v-1.408l1.234-2.008h-0.474l-0.947 1.594h-0.040l-0.948-1.594h-0.474zM13.664 27.41h-0.434l1.254 3.416h0.427l1.254-3.416h-0.434l-1.014 2.876h-0.040l-1.014-2.876zM17.112 27.41h-0.414v3.416h0.414v-3.416zM18.995 30.826c1.041 0 1.628-0.647 1.628-1.715 0-1.061-0.587-1.702-1.581-1.702h-1.101v3.416h1.054zM18.355 30.459v-2.682h0.661c0.801 0 1.208 0.507 1.208 1.334 0 0.834-0.407 1.348-1.254 1.348h-0.614zM21.317 30.826h2.088v-0.367h-1.675v-1.161h1.541v-0.367h-1.541v-1.154h1.648v-0.367h-2.062v3.416zM27.007 29.118c0-1.081-0.634-1.755-1.508-1.755s-1.508 0.674-1.508 1.755 0.634 1.755 1.508 1.755c0.874 0 1.508-0.674 1.508-1.755zM26.607 29.118c0 0.887-0.487 1.368-1.108 1.368s-1.107-0.48-1.107-1.368c0-0.887 0.487-1.367 1.107-1.367s1.108 0.48 1.108 1.368z"></path>
</symbol>
<symbol id="search" viewBox="0 0 32 32">
<path stroke-linejoin="round" stroke-linecap="round" stroke-miterlimit="4" stroke-width="2.1333" d="M14.667 25.333c5.891 0 10.667-4.775 10.667-10.667s-4.775-10.667-10.667-10.667-10.667 4.775-10.667 10.667 4.775 10.667 10.667 10.667zM28 28l-5.801-5.801"></path>
</symbol>
<symbol id="shopping-bag" viewBox="0 0 32 32">
<path stroke-linejoin="round" stroke-linecap="round" stroke-miterlimit="4" stroke-width="2.1333" d="M8 2.667l-4 5.333v18.667c0 1.473 1.194 2.667 2.667 2.667v0h18.667c1.473 0 2.667-1.194 2.667-2.667v0-18.667l-4-5.333h-16zM4 8h24"></path>
<path stroke-linejoin="round" stroke-linecap="round" stroke-miterlimit="4" stroke-width="2.1333" d="M21.333 13.333c0 2.946-2.388 5.333-5.333 5.333s-5.333-2.388-5.333-5.333v0"></path>
</symbol>
<symbol id="star" viewBox="0 0 32 32">
<path fill="#c99e71" style="fill: var(--color2, #c99e71)" d="M16 2.667l4.12 8.346 9.213 1.347-6.666 6.493 1.573 9.174-8.24-4.334-8.24 4.334 1.573-9.174-6.666-6.493 9.213-1.347 4.12-8.346z"></path>
</symbol>
<symbol id="star-empty" viewBox="0 0 32 32">
<path fill="none" stroke="#c99e71" style="stroke: var(--color2, #c99e71)" stroke-linejoin="round" stroke-linecap="round" stroke-miterlimit="4" stroke-width="3.2" d="M16 2.667l4.12 8.346 9.213 1.347-6.666 6.493 1.573 9.174-8.24-4.334-8.24 4.334 1.573-9.174-6.666-6.493 9.213-1.347 4.12-8.346z"></path>
</symbol>
<symbol id="star-feedback" viewBox="0 0 34 32">
<path fill="#faa61a" style="fill: var(--color3, #faa61a)" d="M16.842 0l3.781 11.638h12.237l-9.9 7.192 3.781 11.638-9.9-7.192-9.9 7.192 3.781-11.638-9.898-7.192h12.237l3.779-11.638z"></path>
</symbol>
</defs>
</svg>
